#!OML:ASF H:\Terrain\Patient Classification 1\Walking\liu\liu.ASF
:FULLY-SPECIFIED
:DEGREES
202
root 8.62113 16.7644 -5.05481 5.48812 1.22964 -3.58158
lowerback -4.86407 0.428579 -0.64115
upperback -0.00381511 0.541118 2.4186
thorax 2.69484 0.246434 2.89154
lowerneck -19.2954 -6.32798 -13.4773
upperneck 19.1077 -8.37999 15.0248
head 10.5749 -3.21282 6.41635
rclavicle 5.96354e-015 -2.78299e-015
rhumerus -36.02 17.8729 -84.5608
rradius 45.5548
rwrist -22.8723
rhand -30.8787 -26.7809
rfingers 7.12502
rthumb -4.16598 -56.7199
lclavicle 5.96354e-015 -2.78299e-015
lhumerus -44.5513 -5.03195 87.1399
lradius 22.8429
lwrist 1.28482
lhand -10.5428 -22.3752
lfingers 7.12502
lthumb 15.4609 7.02656
rfemur -11.3373 2.39159 30.1461
rtibia 26.6571
rfoot -20.8317 -1.27516
rtoes -11.704
lfemur -36.317 15.7231 -17.4309
ltibia 54.2396
lfoot -14.2719 12.0971
ltoes -0.11038
203
root 8.62733 16.7626 -4.9345 5.59814 1.04372 -3.54604
lowerback -4.97756 0.496979 -0.70774
upperback 0.0710468 0.635263 2.38315
thorax 2.83026 0.290746 2.90153
lowerneck -19.2816 -6.27064 -13.4294
upperneck 18.8869 -8.30155 15.0798
head 10.4807 -3.16952 6.4333
rclavicle 7.40473e-015 5.1684e-015
rhumerus -35.6304 17.8278 -84.4878
rradius 45.75
rwrist -23.0759
rhand -31.9541 -28.0868
rfingers 7.12502
rthumb -5.20439 -58.0028
lclavicle 7.40473e-015 5.1684e-015
lhumerus -44.6169 -4.30363 86.6588
lradius 22.7528
lwrist 0.90378
lhand -10.8008 -22.5371
lfingers 7.12502
lthumb 15.2123 6.88367
rfemur -10.7348 2.45084 30.134
rtibia 26.1314
rfoot -21.0001 -1.37931
rtoes -11.7708
lfemur -36.8875 15.032 -17.5059
ltibia 52.4033
lfoot -14.4805 12.4895
ltoes -2.16183
204
root 8.63032 16.7557 -4.8215 5.75151 0.874846 -3.85873
lowerback -4.98312 0.590761 -0.486661
upperback -0.00613119 0.745811 2.49092
thorax 2.74908 0.34968 2.89557
lowerneck -18.7275 -6.18977 -13.6749
upperneck 18.5546 -8.19129 15.2832
head 10.2607 -3.14071 6.56161
rclavicle -4.48508e-015 -7.55382e-015
rhumerus -35.631 17.8369 -84.3684
rradius 46.1287
rwrist -23.2826
rhand -32.2093 -27.2968
rfingers 7.12502
rthumb -5.45077 -57.2067
lclavicle -4.48508e-015 -7.55382e-015
lhumerus -44.926 -3.81784 86.4317
lradius 22.5246
lwrist 0.677532
lhand -11.1463 -23.158
lfingers 7.12502
lthumb 14.8796 6.28768
rfemur -10.1761 2.65258 30.5332
rtibia 25.5212
rfoot -21.1094 -1.72085
rtoes -12.9167
lfemur -37.6852 14.5267 -17.2056
ltibia 50.5464
lfoot -14.6328 12.9685
ltoes -5.25855
205
root 8.64346 16.7541 -4.70302 5.89027 0.696213 -4.04142
lowerback -5.05036 0.646697 -0.303277
upperback -0.0329708 0.806462 2.60211
thorax 2.7569 0.381838 2.91251
lowerneck -18.924 -6.23359 -13.746
upperneck 18.8316 -8.19056 15.0824
head 10.3884 -3.15676 6.50742
rclavicle 7.37988e-015 7.95139e-015
rhumerus -35.5796 18.0281 -84.223
rradius 46.5543
rwrist -23.5405
rhand -31.9004 -27.5425
rfingers 7.12502
rthumb -5.15256 -57.4598
lclavicle 7.37988e-015 7.95139e-015
lhumerus -45.1457 -3.90484 86.6991
lradius 22.3581
lwrist 1.27234
lhand -10.8957 -23.1618
lfingers 7.12502
lthumb 15.1209 6.2658
rfemur -9.47671 2.62394 30.7098
rtibia 24.7575
rfoot -21.2174 -1.82437
rtoes -13.8904
lfemur -38.259 13.9736 -17.0747
ltibia 48.5703
lfoot -14.5991 13.5754
ltoes -8.09034
206
root 8.65871 16.7652 -4.58015 6.09887 0.44171 -3.78786
lowerback -5.2332 0.686948 -0.458533
upperback -0.0280737 0.871024 2.4759
thorax 2.86073 0.411694 2.87741
lowerneck -19.6233 -6.2633 -13.507
upperneck 19.3086 -8.22943 14.9032
head 10.6787 -3.14457 6.40677
rclavicle -2.83268e-015 -6.36111e-015
rhumerus -35.3544 18.1309 -84.2698
rradius 46.8071
rwrist -23.7783
rhand -32.2991 -29.7858
rfingers 7.12502
rthumb -5.53749 -59.6934
lclavicle -2.83268e-015 -6.36111e-015
lhumerus -45.2149 -3.82661 86.615
lradius 22.1852
lwrist 1.46448
lhand -10.5995 -23.0756
lfingers 7.12502
lthumb 15.4063 6.3303
rfemur -8.77065 2.62197 30.3501
rtibia 23.9387
rfoot -21.2566 -1.60729
rtoes -13.3834
lfemur -38.7009 13.2626 -17.3721
ltibia 46.4563
lfoot -14.2361 14.2266
ltoes -10.6565
207
root 8.66549 16.7697 -4.45405 6.15857 0.0957855 -3.86586
lowerback -5.18946 0.837397 -0.382252
upperback -0.111315 1.07011 2.43996
thorax 2.74178 0.513959 2.8098
lowerneck -19.8587 -6.29652 -13.3487
upperneck 19.4269 -8.29746 14.8477
head 10.7677 -3.15931 6.35007
rclavicle 7.35503e-015 3.97569e-016
rhumerus -35.3974 18.0173 -84.3048
rradius 47.0811
rwrist -23.8161
rhand -32.4705 -30.6828
rfingers 7.12502
rthumb -5.70302 -60.586
lclavicle 7.35503e-015 3.97569e-016
lhumerus -45.4023 -2.77893 85.8315
lradius 21.8594
lwrist 0.0873876
lhand -10.332 -23.02
lfingers 7.12502
lthumb 15.6639 6.36596
rfemur -7.91303 2.92966 30.3889
rtibia 23.154
rfoot -21.411 -1.33633
rtoes -11.6499
lfemur -38.9542 12.728 -17.1589
ltibia 44.2665
lfoot -14.1574 14.558
ltoes -11.8122
208
root 8.67485 16.7644 -4.32183 6.06826 -0.199464 -4.09487
lowerback -5.10551 1.00002 -0.173972
upperback -0.113058 1.27321 2.52843
thorax 2.68507 0.617968 2.79681
lowerneck -20.1095 -6.40644 -13.21
upperneck 19.6412 -8.37753 14.4033
head 10.8752 -3.22217 6.14733
rclavicle 1.63997e-014 1.47101e-014
rhumerus -35.2988 17.9747 -84.2706
rradius 47.1286
rwrist -23.9353
rhand -32.657 -29.4373
rfingers 7.12502
rthumb -5.8831 -59.3356
lclavicle 1.63997e-014 1.47101e-014
lhumerus -45.6216 -1.86861 85.3434
lradius 21.672
lwrist -0.997297
lhand -10.6127 -23.0998
lfingers 7.12502
lthumb 15.3936 6.3071
rfemur -6.90029 3.0166 30.6198
rtibia 22.376
rfoot -21.6482 -1.31868
rtoes -12.2829
lfemur -38.9209 12.1379 -16.6616
ltibia 42.0389
lfoot -14.2905 14.629
ltoes -11.6772
209
root 8.69201 16.7575 -4.19713 6.11436 -0.375194 -4.24061
lowerback -5.19883 1.05193 0.0441336
upperback -0.0164508 1.3252 2.55721
thorax 2.83878 0.644705 2.71159
lowerneck -20.4085 -6.44844 -13.0967
upperneck 19.9349 -8.38743 14.0858
head 11.0179 -3.23957 6.01292
rclavicle 1.758e-014 -2.98177e-015
rhumerus -34.929 18.0531 -84.3295
rradius 47.1255
rwrist -24.1966
rhand -32.8333 -28.6701
rfingers 7.12502
rthumb -6.05325 -58.5636
lclavicle 1.758e-014 -2.98177e-015
lhumerus -45.5597 -1.42981 85.1352
lradius 21.4887
lwrist -1.41161
lhand -11.2295 -23.6575
lfingers 7.12502
lthumb 14.7994 5.79406
rfemur -6.08545 3.0165 30.736
rtibia 21.6546
rfoot -21.7421 -1.42933
rtoes -13.8746
lfemur -39.0266 11.3604 -16.2677
ltibia 39.869
lfoot -14.3496 14.6759
ltoes -11.15
210
root 8.70853 16.7562 -4.07922 6.28241 -0.584583 -4.39659
lowerback -5.25825 1.05868 0.195364
upperback 0.00843243 1.32209 2.60098
thorax 2.90038 0.644346 2.67349
lowerneck -20.6162 -6.43087 -13.1281
upperneck 20.1023 -8.37017 14.1781
head 11.1232 -3.21508 6.06305
rclavicle 3.15446e-014 2.72335e-014
rhumerus -34.7598 18.1386 -84.3788
rradius 47.4211
rwrist -24.2758
rhand -32.7854 -28.6314
rfingers 7.12502
rthumb -6.00704 -58.5263
lclavicle 3.15446e-014 2.72335e-014
lhumerus -45.4871 -0.654479 84.6612
lradius 21.2204
lwrist -2.41889
lhand -10.646 -23.7601
lfingers 7.12502
lthumb 15.3615 5.64926
rfemur -5.48402 3.21831 30.8448
rtibia 21.0113
rfoot -21.6284 -1.42561
rtoes -14.1373
lfemur -39.35 10.6664 -15.8827
ltibia 37.7776
lfoot -14.2129 14.5328
ltoes -11.3004
211
root 8.71721 16.7652 -3.95088 6.30658 -0.911283 -4.41551
lowerback -5.25053 1.12915 0.104981
upperback -0.00468748 1.4206 2.65154
thorax 2.87471 0.692149 2.7837
lowerneck -20.8397 -6.42435 -13.1172
upperneck 20.1637 -8.35068 14.2026
head 11.1865 -3.19368 6.07567
rclavicle 2.98301e-014 1.92821e-014
rhumerus -34.8418 18.2 -84.4321
rradius 47.7417
rwrist -24.4247
rhand -32.9009 -27.8798
rfingers 7.12502
rthumb -6.11852 -57.7714
lclavicle 2.98301e-014 1.92821e-014
lhumerus -45.758 -0.187379 84.503
lradius 21.2193
lwrist -2.84562
lhand -9.7185 -23.2768
lfingers 7.12502
lthumb 16.2547 6.06185
rfemur -4.72986 3.38193 30.7968
rtibia 20.3704
rfoot -21.5538 -1.2757
rtoes -14.6873
lfemur -39.4205 10.1343 -15.6208
ltibia 35.7775
lfoot -13.8272 14.2332
ltoes -13.6343
212
root 8.72751 16.7731 -3.81626 6.26005 -1.22865 -4.48054
lowerback -5.3476 1.26543 0.203845
upperback 0.0493182 1.59329 2.65228
thorax 2.97951 0.778515 2.74572
lowerneck -20.0051 -6.35802 -13.5144
upperneck 19.6755 -8.26889 14.562
head 10.8726 -3.18301 6.28248
rclavicle -3.99806e-014 -1.19271e-014
rhumerus -34.8581 18.2246 -84.4839
rradius 47.9467
rwrist -24.7804
rhand -32.7778 -28.3695
rfingers 7.12502
rthumb -5.99972 -58.2646
lclavicle -3.99806e-014 -1.19271e-014
lhumerus -45.9526 -0.149741 84.6181
lradius 21.1952
lwrist -2.41071
lhand -9.77107 -23.3293
lfingers 7.12502
lthumb 16.2041 6.0135
rfemur -3.7971 3.64455 30.7842
rtibia 19.6188
rfoot -21.6706 -1.1062
rtoes -15.1079
lfemur -39.3989 9.70496 -15.3125
ltibia 33.9078
lfoot -13.7714 13.88
ltoes -14.8391
213
root 8.74407 16.7581 -3.69218 6.36405 -1.38421 -4.67312
lowerback -5.43125 1.36892 0.520418
upperback 0.0599465 1.70974 2.63821
thorax 3.04187 0.840782 2.56489
lowerneck -19.8959 -6.38809 -13.7929
upperneck 19.5578 -8.31632 14.9196
head 10.8499 -3.19229 6.45773
rclavicle -1.1045e-014 -1.35174e-014
rhumerus -34.7974 18.1059 -84.4892
rradius 48.1682
rwrist -25.073
rhand -32.5296 -29.8876
rfingers 7.12502
rthumb -5.76009 -59.7893
lclavicle -1.1045e-014 -1.35174e-014
lhumerus -45.9367 -0.276581 84.747
lradius 20.9278
lwrist -2.04301
lhand -10.203 -23.9055
lfingers 7.12502
lthumb 15.7881 5.47065
rfemur -2.97973 4.01995 30.9621
rtibia 18.7687
rfoot -21.5106 -1.15674
rtoes -14.4857
lfemur -39.7372 9.41943 -14.9815
ltibia 32.1176
lfoot -13.4949 13.2717
ltoes -11.9692
